{
	"asset":{
		"generator":"Khronos glTF Blender I/O v4.1.63",
		"version":"2.0"
	},
	"scene":0,
	"scenes":[
		{
			"name":"Scene",
			"nodes":[
				0
			]
		}
	],
	"nodes":[
		{
			"mesh":0,
			"name":"Cube.100",
			"rotation":[
				0.2620126008987427,
				0.8815475702285767,
				-0.26619601249694824,
				0.2887265086174011
			],
			"scale":[
				4.506540298461914,
				2.3735463619232178,
				4.506539821624756
			],
			"translation":[
				19.626567840576172,
				23.7955379486084,
				-33.970977783203125
			]
		}
	],
	"materials":[
		{
			"doubleSided":true,
			"name":"Material.001",
			"pbrMetallicRoughness":{
				"metallicFactor":0
			}
		}
	],
	"meshes":[
		{
			"name":"Cube.164",
			"primitives":[
				{
					"attributes":{
						"POSITION":0,
						"NORMAL":1,
						"TEXCOORD_0":2
					},
					"indices":3,
					"material":0
				}
			]
		}
	],
	"accessors":[
		{
			"bufferView":0,
			"componentType":5126,
			"count":18495,
			"max":[
				6.93684720993042,
				5.360069751739502,
				5.555091857910156
			],
			"min":[
				-8.478920936584473,
				-25.50214958190918,
				-10.426175117492676
			],
			"type":"VEC3"
		},
		{
			"bufferView":1,
			"componentType":5126,
			"count":18495,
			"type":"VEC3"
		},
		{
			"bufferView":2,
			"componentType":5126,
			"count":18495,
			"type":"VEC2"
		},
		{
			"bufferView":3,
			"componentType":5123,
			"count":29289,
			"type":"SCALAR"
		}
	],
	"bufferViews":[
		{
			"buffer":0,
			"byteLength":221940,
			"byteOffset":0,
			"target":34962
		},
		{
			"buffer":0,
			"byteLength":221940,
			"byteOffset":221940,
			"target":34962
		},
		{
			"buffer":0,
			"byteLength":147960,
			"byteOffset":443880,
			"target":34962
		},
		{
			"buffer":0,
			"byteLength":58578,
			"byteOffset":591840,
			"target":34963
		}
	],
	"buffers":[
		{
			"byteLength":650420,
			"uri":"cave.bin"
		}
	]
}
